grf
version=1
nRows=15
nColumns=37
inDegrees=no
endheader
time	ground_force_1_vx	ground_force_1_vy	ground_force_1_vz	ground_force_1_px	ground_force_1_py	ground_force_1_pz	ground_moment_1_mx	ground_moment_1_my	ground_moment_1_mz	ground_force_2_vx	ground_force_2_vy	ground_force_2_vz	ground_force_2_px	ground_force_2_py	ground_force_2_pz	ground_moment_2_mx	ground_moment_2_my	ground_moment_2_mz	ground_force_3_vx	ground_force_3_vy	ground_force_3_vz	ground_force_3_px	ground_force_3_py	ground_force_3_pz	ground_moment_3_mx	ground_moment_3_my	ground_moment_3_mz	ground_force_4_vx	ground_force_4_vy	ground_force_4_vz	ground_force_4_px	ground_force_4_py	ground_force_4_pz	ground_moment_4_mx	ground_moment_4_my	ground_moment_4_mz
      1.49000000	      0.00000000	     -0.00000000	      0.00000000	      0.00000000	      0.00000000	      0.00000000	      0.00000000	      0.00000000	      0.00000000	      0.10823694	     30.68628883	   -217.20565796	   -355.80065403	  -1084.57576360	      0.00000000	     -0.00000000	     -0.00000000	   -435.39372384	      4.25181185	    -45.16391791	   -284.13500977	   -393.79825470	   -640.52980877	      0.00000000	      0.00000000	     -0.00000000	  -1781.20631787	    -35.22775891	     16.05339168	     75.68009186	    601.86644879	   -562.64834789	      0.00000000	      0.00000000	      0.00000000	     52.17007035
      1.50000000	      0.00000000	     -0.00000000	      0.00000000	      0.00000000	      0.00000000	      0.00000000	      0.00000000	      0.00000000	      0.00000000	     -1.05187941	     31.19564056	   -219.07171631	   -353.93999617	  -1083.19179494	      0.00000000	      0.00000000	     -0.00000000	   -555.70036517	      4.29638845	    -45.65581169	   -281.71398926	   -392.84224702	   -640.93664890	      0.00000000	      0.00000000	     -0.00000000	  -1887.06561258	    -35.09980252	     16.05369684	     75.53466797	    606.23969429	   -560.34263599	      0.00000000	      0.00000000	     -0.00000000	    -79.86164730
      1.51000000	      0.00000000	     -0.00000000	      0.00000000	      0.00000000	      0.00000000	      0.00000000	      0.00000000	      0.00000000	      0.00000000	     -2.37666416	     32.11893845	   -224.49566650	   -353.95149120	  -1084.45711484	      0.00000000	     -0.00000000	     -0.00000000	   -423.71119319	      3.95344856	    -46.04727207	   -278.17507935	   -391.65985353	   -639.38325108	      0.00000000	      0.00000000	     -0.00000000	  -2198.25740321	    -35.09986737	     16.07223436	     75.32859039	    604.77253653	   -562.99838170	      0.00000000	      0.00000000	      0.00000000	     65.36249110
      1.52000000	      0.00000000	     -0.00000000	      0.00000000	      0.00000000	      0.00000000	      0.00000000	      0.00000000	      0.00000000	      0.00000000	     -2.51586771	     33.43800735	   -227.57492065	   -352.78894273	  -1083.14641738	      0.00000000	     -0.00000000	     -0.00000000	   -353.50617705	      2.28152604	    -46.97333928	   -277.64648438	   -389.38481473	   -638.15917055	      0.00000000	      0.00000000	     -0.00000000	  -2349.53599995	    -35.18219617	     15.96771548	     75.30007172	    606.29133328	   -565.73446490	      0.00000000	      0.00000000	      0.00000000	    175.29372610
      1.53000000	      0.00000000	     -0.00000000	      0.00000000	      0.00000000	      0.00000000	      0.00000000	      0.00000000	      0.00000000	      0.00000000	     -1.57362711	     33.74102020	   -227.64492798	   -351.79695659	  -1084.97568540	      0.00000000	      0.00000000	     -0.00000000	    -72.56530532	      1.31636492	    -47.34377682	   -275.25723267	   -387.53327354	   -638.30682049	      0.00000000	      0.00000000	     -0.00000000	  -2817.85705966	    -35.21434261	     16.23447345	     76.00083923	    603.42771884	   -559.91451959	      0.00000000	      0.00000000	     -0.00000000	   -115.95135322
      1.54000000	      0.00000000	     -0.00000000	      0.00000000	      0.00000000	      0.00000000	      0.00000000	      0.00000000	      0.00000000	      0.00000000	     -1.00369859	     33.75568008	   -224.26925659	   -349.26977713	  -1085.02270041	      0.00000000	      0.00000000	     -0.00000000	    -48.77505785	      1.03984203	    -47.54164514	   -275.18917847	   -384.78603694	   -638.68096190	      0.00000000	      0.00000000	     -0.00000000	  -2930.73306705	    -35.12482313	     15.98205969	     74.68553162	    609.37066847	   -565.53633516	      0.00000000	      0.00000000	      0.00000000	     43.51629809
      1.55000000	      0.00000000	     -0.00000000	      0.00000000	      0.00000000	      0.00000000	      0.00000000	      0.00000000	      0.00000000	      0.00000000	     -1.74267709	     34.42892838	   -224.75030518	   -348.83235600	  -1086.17546735	      0.00000000	     -0.00000000	      0.00000000	    214.12656210	      0.41901755	    -48.42471317	   -283.48138428	   -383.46276918	   -636.61555900	      0.00000000	      0.00000000	     -0.00000000	  -3225.52986407	    -35.28689812	     16.55441593	     74.65630341	    611.03558635	   -563.46972897	      0.00000000	      0.00000000	     -0.00000000	   -251.73036038
      1.56000000	      0.00000000	     -0.00000000	      0.00000000	      0.00000000	      0.00000000	      0.00000000	      0.00000000	      0.00000000	      0.00000000	     -3.19582748	     34.63939667	   -227.22280884	   -347.20703736	  -1085.43955326	      0.00000000	      0.00000000	      0.00000000	    230.67335509	      0.70193929	    -48.97881705	   -294.20828247	   -382.20858380	   -638.06206062	      0.00000000	      0.00000000	     -0.00000000	  -3571.96975756	    -34.97024014	     16.09650345	     74.78590393	    610.70975684	   -563.83777605	      0.00000000	      0.00000000	      0.00000000	    -57.28957528
      1.57000000	      0.00000000	     -0.00000000	      0.00000000	      0.00000000	      0.00000000	      0.00000000	      0.00000000	      0.00000000	      0.00000000	     -4.20104074	     34.97152710	   -230.97967529	   -346.79799100	  -1084.01826063	      0.00000000	     -0.00000000	      0.00000000	    613.60287968	      1.17749802	    -48.63316737	   -302.04748535	   -381.43514379	   -639.75257101	      0.00000000	      0.00000000	     -0.00000000	  -3828.65364777	    -35.14106225	     16.46444628	     75.23149872	    606.47130257	   -565.45698452	      0.00000000	      0.00000000	     -0.00000000	    -95.65399965
      1.58000000	      0.00000000	     -0.00000000	      0.00000000	      0.00000000	      0.00000000	      0.00000000	      0.00000000	      0.00000000	      0.00000000	     -4.36377573	     36.18694305	   -238.91130066	   -347.31798266	  -1085.16096667	      0.00000000	     -0.00000000	      0.00000000	    869.96825213	      1.07271404	    -48.27165232	   -306.42800903	   -379.26860332	   -638.84452490	      0.00000000	     -0.00000000	     -0.00000000	  -4048.56321571	    -35.44245007	     16.12156415	     75.64904785	    606.51916766	   -560.32638500	      0.00000000	      0.00000000	     -0.00000000	    -79.47870502
      1.59000000	      0.00000000	     -0.00000000	      0.00000000	      0.00000000	      0.00000000	      0.00000000	      0.00000000	      0.00000000	      0.00000000	     -3.46361423	     38.19593048	   -242.41035461	   -347.26544306	  -1084.10786137	      0.00000000	      0.00000000	      0.00000000	   1176.03562595	     -0.19308202	    -48.93021391	   -311.50488281	   -377.80488267	   -639.32523828	      0.00000000	      0.00000000	     -0.00000000	  -4287.30856199	    -35.29476787	     16.22742008	     74.97549438	    609.02555162	   -565.74693444	      0.00000000	      0.00000000	     -0.00000000	     -6.00455090
      1.60000000	      0.00000000	     -0.00000000	      0.00000000	      0.00000000	      0.00000000	      0.00000000	      0.00000000	      0.00000000	      0.00000000	     -2.57841372	     39.64779282	   -246.07162476	   -346.68878886	  -1087.10787775	      0.00000000	      0.00000000	      0.00000000	   1381.86314492	     -0.83082285	    -49.38885872	   -317.88220215	   -376.38425353	   -639.54691776	      0.00000000	     -0.00000000	     -0.00000000	  -4429.11589262	    -35.32725764	     16.25784611	     74.49572754	    610.48995603	   -562.85020917	      0.00000000	      0.00000000	     -0.00000000	   -233.89519243
      1.61000000	      0.00000000	     -0.00000000	      0.00000000	      0.00000000	      0.00000000	      0.00000000	      0.00000000	      0.00000000	      0.00000000	     -1.71879888	     40.65834427	   -248.43867493	   -347.88964380	  -1086.76706724	      0.00000000	      0.00000000	      0.00000000	   1972.85840729	     -1.35439119	    -50.08712757	   -326.83029175	   -375.79851119	   -638.44044222	      0.00000000	      0.00000000	     -0.00000000	  -4533.90625807	    -35.32136395	     16.09885715	     75.45471191	    604.28283437	   -561.08806823	      0.00000000	      0.00000000	     -0.00000000	    -17.80845351
      1.62000000	      0.00000000	     -0.00000000	      0.00000000	      0.00000000	      0.00000000	      0.00000000	      0.00000000	      0.00000000	      0.00000000	     -2.08460665	     41.16917038	   -250.01542664	   -347.62098725	  -1086.56778595	      0.00000000	      0.00000000	      0.00000000	   2312.75601025	     -1.94269727	    -50.22263319	   -336.45404053	   -374.75722623	   -640.03161309	      0.00000000	     -0.00000000	     -0.00000000	  -5006.23027021	    -35.47287994	     15.74468923	     74.97470093	    606.66398703	   -565.98851370	      0.00000000	      0.00000000	      0.00000000	    138.04371372
      1.63000000	      0.00000000	     -0.00000000	      0.00000000	      0.00000000	      0.00000000	      0.00000000	      0.00000000	      0.00000000	      0.00000000	     -3.25863576	     41.78795624	   -252.04045105	   -348.04592110	  -1084.77258355	      0.00000000	      0.00000000	      0.00000000	   2623.25674608	     -2.95091663	    -50.25504277	   -344.61267090	   -374.33449043	   -640.01921444	      0.00000000	      0.00000000	     -0.00000000	  -5314.71629615	    -35.62798549	     16.17089011	     75.99015045	    604.32000616	   -562.17732897	      0.00000000	      0.00000000	     -0.00000000	    -18.73580401
